<svg xmlns="http://www.w3.org/2000/svg" width="301.03" height="552" viewBox="0 0 301.03 552">
  <metadata><?xpacket begin="﻿" id="W5M0MpCehiHzreSzNTczkc9d"?>
<x:xmpmeta xmlns:x="adobe:ns:meta/" x:xmptk="Adobe XMP Core 5.6-c138 79.159824, 2016/09/14-01:09:01        ">
   <rdf:RDF xmlns:rdf="http://www.w3.org/1999/02/22-rdf-syntax-ns#">
      <rdf:Description rdf:about=""/>
   </rdf:RDF>
</x:xmpmeta>





















<?xpacket end="w"?></metadata>
<defs>
    <style>
      .cls-1 {
        fill: #ebf4ff;
        fill-rule: evenodd;
      }
    </style>
  </defs>
  <path id="Forma_1" data-name="Forma 1" class="cls-1" d="M1965.32,5841.33c-15.24-10.18-145.73-98.91-180.9-161.02l-1.93-3.42-3.96-.14c-30.29-1.24-53.84,16.25-63.93,25.31q-6.165-6.24-12.59-12.85l-5.11-5.24-5.08,5.28c-19.86,20.56-28.64,39.7-26.13,56.96,2.04,13.98,11.63,26.19,27.72,35.26,2.9,1.66,36.5,24.47,73.02,53.58-6.3,6.44-29.24,21.26-37.54,27.16-9.35,6.62-48.26,41.88-48.26,41.88l25.14,5.93,8.7,16.97s11.94-29.18,25.05-43.58,35.99-25.91,35.99-25.91a355.825,355.825,0,0,0-21.24,34.75c-8.86,17.11-11.12,46.79-11.12,46.79l15.37-4.84,10.59,23.05s2.83-32.59,9.34-53.8c5.26-17.19,18.16-33.47,22.95-39.15,46.31,40.68,94.7,89.85,104.37,99.77a42.151,42.151,0,0,0,23.25,13.8,49.567,49.567,0,0,0,10.58,1.13c20.04,0,39.05-12.44,51.3-34.27,14.29-25.4,18.33-64.46-6.49-90.11C1977.61,5847.46,1971.17,5843.45,1965.32,5841.33Zm-196.35-22.37c-33.51-26.32-64.09-47.27-68.54-49.79-12.34-6.97-19.3-15.38-20.7-25.02-1.64-11.33,4.19-24.67,17.37-39.73,32.77,33.49,60.8,60.06,84.59,81.18C1770.93,5803.04,1769.04,5812.42,1768.97,5818.96Zm20.81-45.15c-18.89-16.76-40.51-37.09-65.14-61.7,8.36-7.29,26.77-20.74,49.55-21.27,11.9,19.49,31.63,40.9,53.87,61.58C1816.48,5753.59,1802.04,5758.66,1789.78,5773.81Zm14.39,74.07a111.811,111.811,0,0,1,10.33-34.35c41.67,33.89,65.34,46.27,75.68,50.61-1.61,11.92-4.32,39.42.39,64.53C1868.21,5906.55,1835.32,5874.84,1804.17,5847.88Zm174.44,89.92c-8.81,15.69-25.64,30.84-46.48,26.24-35.77-7.87-31.68-77.27-27.08-103.33l1.16-6.61-6.57-1.53c-0.28-.07-22.54-6.3-77.53-51.13,10.33-12.01,26.88-17.36,39.45-19.73,31.06,25.71,61.98,47.98,80.46,60.84-0.57.28-1.08,0.55-1.56,0.82-21.29,12.1-30.19,47.01-25.55,63.75,5.41,19.65,18.57,32.32,32.43,32.03,5.92-.2,20.32-3.54,25.59-29.82l0.82-4.09-3.16-2.67c-20-16.97-30.82-27-35.98-32.02,3.29-6.39,7.64-11.94,12.85-14.9,7.92-4.47,16.93-1.55,26.82,8.73C1994.06,5884.87,1990.39,5916.81,1978.61,5937.8Zm-20.51-27.23c-2.47,8.94-6.6,14.3-11.31,14.45h-0.22c-5.89,0-14.13-7.48-18.04-21.64-1.27-4.53-.9-11.26.78-18.31C1935.16,5890.55,1944.32,5898.78,1958.1,5910.57Zm-227.57-331.66-22.38,71.59s91.49,8.88,167.68,32.6c76.22,23.77,156.51,68.44,156.51,68.44l22.76-72.86s-68.39-68.8-149.83-94.17C1823.86,5559.14,1730.53,5578.91,1730.53,5578.91Zm459.46,100.86-26.64-27.9,2.62-8.46s23.47-43.1-35.65-35.13c-3.07.59-4.9,1.58-5.94,2.81l-175.91-184.08-329.49,72.59,90.62,80.81,4.87-15.57s104.1-22.03,194.87,6.24c90.79,28.32,167.05,105.03,167.05,105.03l-8.48,27.15,68.06-13.12c-11.35,36.24-24.37,77.94-28.42,90.86l-19.38-6.06-14.08,44.97,31.37-9.75,23.07,26.73,14.04-44.96-20.95-6.55,30.77-98.41Zm-39.01-10.08a14.282,14.282,0,1,1-9.38-17.83A14.274,14.274,0,0,1,2150.98,5669.69ZM2137.69,5625c7.44-2.21,20.05-4.49,16.69,6.24-0.33,1.04-1.26,4.07-2.67,8.46Z" transform="translate(-1618.97 -5427)"/>
</svg>
